<?xml version="1.0" standalone="no"?>
<!DOCTYPE svg PUBLIC "-//W3C//DTD SVG 20010904//EN"
 "http://www.w3.org/TR/2001/REC-SVG-20010904/DTD/svg10.dtd">
<svg version="1.0" xmlns="http://www.w3.org/2000/svg"
 width="920.000000pt" height="512.000000pt" viewBox="0 0 920.000000 512.000000"
 preserveAspectRatio="xMidYMid meet">

<g transform="translate(0.000000,512.000000) scale(0.100000,-0.100000)"
fill="#FF4C33" stroke="none">
<path d="M2320 3696 c-100 -28 -192 -102 -238 -192 -41 -81 -43 -125 -40 -927
l3 -769 33 -29 32 -29 495 0 c463 0 496 -1 502 -17 51 -154 171 -270 317 -309
209 -56 444 65 517 266 l22 60 982 0 982 0 22 -61 c41 -111 143 -210 258 -251
242 -85 496 45 577 295 5 15 21 17 156 17 l150 0 32 29 33 29 3 248 c2 153 -1
274 -8 315 -17 102 -60 181 -139 260 -101 101 -170 128 -433 174 l-38 6 0 292
c0 314 -4 347 -54 425 -40 63 -95 112 -166 146 l-65 31 -1945 2 c-1537 1
-1954 -1 -1990 -11z m3928 -216 c52 -29 78 -69 87 -132 l7 -48 -1915 0 c-1170
0 -1925 -4 -1940 -9 -45 -17 -67 -51 -67 -102 0 -64 67 -525 80 -549 28 -53
-60 -50 1700 -50 1461 0 1634 2 1661 16 52 26 59 60 59 284 l0 200 210 0 210
0 0 -200 0 -200 28 -30 c22 -25 41 -33 102 -45 41 -8 124 -24 184 -35 127 -24
169 -43 220 -100 71 -78 76 -100 76 -327 l0 -203 -80 0 c-68 0 -82 3 -87 18
-52 155 -141 248 -282 298 -163 58 -347 12 -463 -116 -46 -50 -108 -157 -108
-187 0 -9 -229 -12 -985 -12 -804 0 -985 3 -985 13 0 7 -16 45 -35 83 -99 198
-330 292 -537 219 -138 -49 -230 -147 -281 -298 -5 -15 -42 -17 -431 -17
l-426 0 0 718 0 718 23 33 c30 45 68 72 114 79 21 4 888 6 1928 6 l1890 0 43
-25z m-3238 -535 c0 -109 -3 -145 -12 -146 -7 -1 -82 -2 -165 -3 l-153 -1 -5
30 c-11 64 -35 236 -35 250 0 13 27 15 185 15 l185 0 0 -145z m680 0 l0 -145
-52 -1 c-29 0 -136 -1 -238 -1 l-185 -1 -3 147 -3 146 241 0 240 0 0 -145z
m675 0 l-1 -146 -149 -1 c-83 0 -189 0 -237 1 l-88 1 0 145 0 145 238 0 237 0
0 -145z m675 -2 l0 -148 -235 0 -235 0 0 148 0 147 235 0 235 0 0 -147z m670
0 l0 -148 -230 0 -230 0 0 148 0 147 230 0 230 0 0 -147z m-2070 -883 c100
-51 148 -164 116 -274 -75 -257 -455 -204 -456 65 0 174 184 288 340 209z
m2776 17 c104 -27 174 -118 174 -226 -1 -134 -98 -230 -234 -231 -262 -1 -322
365 -74 451 64 22 70 22 134 6z"/>
<path d="M3495 2011 c-81 -20 -130 -90 -122 -174 5 -54 27 -91 78 -125 47 -33
132 -28 182 11 43 33 72 102 63 150 -18 94 -113 159 -201 138z"/>
<path d="M6321 2010 c-134 -31 -170 -210 -59 -293 18 -14 48 -22 85 -25 49 -3
64 0 93 20 79 54 102 141 58 220 -36 63 -105 94 -177 78z"/>
</g>
</svg>
