
<svg version="1.0" xmlns="http://www.w3.org/2000/svg"
 width="920.000000pt" height="920.000000pt" viewBox="0 0 920.000000 920.000000"
 preserveAspectRatio="xMidYMid meet">

<g transform="translate(0.000000,920.000000) scale(0.100000,-0.100000)"
 fill="#38CBFE" stroke="none">
<path d="M4400 8283 c-53 -5 -219 -32 -270 -45 -68 -16 -264 -80 -274 -90 -6
-4 -18 -8 -28 -8 -10 0 -18 -4 -18 -10 0 -5 -7 -10 -15 -10 -8 0 -38 -11 -67
-25 -28 -14 -58 -25 -65 -25 -7 0 -13 -4 -13 -10 0 -5 -7 -10 -15 -10 -8 0
-15 -4 -15 -10 0 -5 -5 -10 -10 -10 -6 0 -36 -16 -66 -35 -30 -19 -58 -35 -62
-35 -4 0 -14 -9 -22 -20 -8 -11 -18 -20 -23 -20 -8 0 -109 -74 -156 -114 -35
-31 -191 -189 -228 -230 -83 -95 -233 -317 -233 -345 0 -5 -3 -11 -7 -13 -14
-6 -86 -163 -119 -258 -10 -30 -22 -56 -26 -58 -5 -2 -8 -19 -8 -38 0 -19 -4
-34 -10 -34 -5 0 -10 -11 -10 -25 0 -14 -4 -33 -9 -43 -5 -9 -16 -60 -25 -112
-8 -52 -19 -125 -25 -161 -14 -82 -14 -390 -1 -473 5 -33 14 -97 21 -141 6
-44 16 -100 21 -125 5 -25 12 -62 15 -83 3 -20 9 -40 14 -43 5 -3 9 -21 9 -40
0 -19 5 -34 10 -34 6 0 10 -12 10 -27 0 -16 12 -59 25 -98 14 -38 25 -78 25
-87 0 -10 5 -18 10 -18 6 0 10 -13 10 -30 0 -16 5 -30 10 -30 6 0 10 -10 10
-23 0 -13 4 -27 9 -32 5 -6 14 -28 21 -50 13 -42 35 -98 51 -127 5 -10 9 -22
9 -27 0 -6 20 -54 45 -107 25 -53 45 -99 45 -102 0 -4 16 -38 35 -76 19 -39
35 -76 35 -83 0 -7 5 -13 10 -13 6 0 10 -4 10 -10 0 -15 53 -125 62 -128 4 -2
8 -12 8 -22 0 -10 3 -20 8 -22 4 -1 39 -66 78 -143 99 -194 128 -249 134 -255
5 -5 76 -138 94 -177 6 -13 14 -23 19 -23 4 0 7 -7 7 -15 0 -8 5 -15 10 -15 6
0 10 -9 10 -20 0 -11 4 -20 8 -20 4 0 13 -12 19 -27 11 -28 43 -83 53 -93 3
-3 12 -18 20 -35 8 -16 31 -57 51 -90 20 -33 49 -82 65 -110 16 -27 39 -68 52
-90 12 -22 25 -48 29 -57 3 -10 9 -18 14 -18 5 0 9 -7 9 -15 0 -8 5 -15 10
-15 6 0 10 -9 10 -20 0 -11 4 -20 9 -20 5 0 11 -8 15 -17 3 -10 17 -36 31 -58
14 -22 28 -48 32 -57 3 -10 9 -18 14 -18 5 0 9 -5 9 -10 0 -6 16 -36 35 -66
19 -30 35 -56 35 -57 0 -2 32 -56 70 -121 39 -64 70 -121 70 -126 0 -6 5 -10
10 -10 6 0 10 -6 10 -14 0 -8 3 -16 8 -18 9 -4 51 -76 59 -100 3 -10 9 -18 14
-18 5 0 9 -6 9 -14 0 -8 3 -16 8 -18 4 -1 17 -23 30 -47 32 -62 56 -105 62
-111 3 -3 32 -50 64 -105 33 -55 70 -117 83 -137 12 -21 23 -42 23 -48 0 -5 4
-10 8 -10 4 0 21 -27 37 -60 17 -33 33 -60 38 -60 4 0 7 -7 7 -15 0 -22 13
-18 26 8 6 12 42 76 81 142 38 66 78 136 89 155 10 19 22 37 27 38 4 2 7 7 7
12 0 4 18 37 40 71 22 35 43 72 46 82 4 9 10 17 15 17 5 0 9 9 9 20 0 11 5 20
10 20 6 0 10 7 10 15 0 8 4 15 9 15 5 0 11 8 14 18 6 17 48 93 57 102 3 3 16
25 29 50 13 25 30 52 37 61 8 8 14 21 14 27 0 7 4 12 8 12 5 0 16 16 25 35 9
19 42 76 72 126 30 49 55 94 55 100 0 5 5 9 10 9 6 0 10 4 10 9 0 8 60 114 77
136 4 6 15 24 23 40 8 17 17 32 20 35 9 9 51 85 57 103 3 9 9 17 14 17 5 0 9
4 9 8 0 5 31 62 68 128 38 65 75 130 83 144 8 14 16 27 19 30 3 3 14 23 25 45
11 22 23 42 28 43 4 2 7 10 7 18 0 8 5 14 10 14 6 0 10 9 10 20 0 11 3 20 8
20 4 0 12 10 18 23 18 38 69 132 74 137 3 3 16 25 28 50 13 25 51 97 85 160
34 63 77 147 97 185 19 39 38 72 43 73 4 2 7 9 7 15 0 15 53 121 63 125 4 2 7
12 7 23 0 10 5 19 10 19 6 0 10 6 10 13 0 7 8 31 19 53 10 21 26 57 36 79 10
22 33 73 51 112 19 40 34 77 34 82 0 5 9 26 19 48 11 21 31 72 46 113 15 41
31 85 36 98 23 55 28 72 54 157 15 50 31 98 36 107 5 10 9 29 9 42 0 14 4 27
9 30 5 3 11 20 14 38 3 18 15 80 26 138 56 275 64 357 58 565 -6 179 -14 259
-42 390 -9 44 -19 92 -22 108 -3 15 -9 30 -14 33 -5 3 -9 18 -9 34 0 16 -4 32
-10 35 -5 3 -10 15 -10 26 0 10 -4 19 -10 19 -5 0 -10 8 -10 17 0 37 -109 271
-161 345 -11 14 -19 29 -19 32 0 6 -119 177 -129 186 -3 3 -28 32 -56 65 -71
86 -248 254 -293 279 -9 5 -26 18 -36 28 -11 10 -23 18 -27 18 -5 0 -19 11
-33 25 -14 14 -27 25 -30 25 -3 0 -30 16 -60 35 -30 19 -60 35 -66 35 -5 0
-10 5 -10 10 0 6 -9 10 -19 10 -11 0 -21 4 -23 8 -4 11 -115 62 -133 62 -8 0
-15 5 -15 10 0 6 -7 10 -15 10 -8 0 -23 4 -33 9 -9 5 -28 14 -42 20 -40 17
-260 79 -310 86 -25 4 -56 9 -70 12 -99 18 -420 28 -540 16z m370 -1267 c19
-4 44 -11 55 -15 55 -22 73 -30 112 -47 24 -11 43 -22 43 -26 0 -5 7 -8 15 -8
8 0 15 -4 15 -10 0 -5 7 -10 15 -10 8 0 15 -4 15 -10 0 -5 5 -10 12 -10 11 0
116 -107 154 -157 30 -41 94 -172 94 -193 0 -10 4 -21 9 -24 32 -20 32 -382 0
-402 -5 -3 -9 -16 -9 -29 0 -13 -4 -26 -9 -29 -4 -3 -11 -18 -14 -34 -3 -16
-28 -62 -56 -103 -70 -104 -142 -176 -228 -225 -26 -16 -49 -32 -51 -36 -2 -4
-11 -8 -21 -8 -9 0 -21 -4 -27 -8 -28 -24 -204 -62 -285 -62 -65 0 -228 33
-272 55 -16 8 -36 15 -43 15 -7 0 -14 4 -16 8 -1 4 -25 21 -53 37 -27 15 -59
38 -71 49 -13 12 -35 32 -51 46 -69 63 -135 160 -168 250 -9 25 -21 54 -25 65
-24 56 -40 309 -21 328 6 6 11 26 11 43 0 18 5 36 10 39 6 3 10 15 10 25 0 28
47 126 89 185 44 63 142 165 159 165 6 0 12 5 12 10 0 6 7 10 15 10 8 0 15 5
15 10 0 6 6 10 14 10 8 0 16 4 18 8 4 11 113 62 132 62 8 0 18 5 21 10 3 6 21
10 38 10 18 0 39 5 47 10 16 11 230 7 290 -4z"/>
<path d="M3315 2853 c-54 -16 -59 -18 -155 -57 -36 -14 -71 -26 -77 -26 -7 0
-13 -4 -13 -10 0 -5 -11 -10 -25 -10 -14 0 -25 -3 -25 -7 0 -5 -29 -21 -65
-38 -36 -16 -65 -33 -65 -37 0 -5 -9 -8 -20 -8 -11 0 -20 -4 -20 -10 0 -5 -7
-10 -15 -10 -8 0 -15 -4 -15 -10 0 -5 -5 -10 -11 -10 -15 0 -157 -108 -198
-150 -70 -74 -114 -126 -124 -147 -6 -13 -14 -23 -19 -23 -4 0 -8 -5 -8 -10 0
-6 -10 -31 -23 -58 -58 -121 -81 -271 -56 -366 6 -22 15 -59 21 -81 13 -48 74
-172 94 -192 8 -8 14 -19 14 -24 0 -12 186 -199 197 -199 5 0 18 -8 29 -17 28
-26 124 -87 162 -104 17 -7 32 -17 32 -21 0 -5 4 -8 10 -8 15 0 125 -53 128
-62 2 -4 12 -8 23 -8 11 0 27 -4 37 -9 52 -26 150 -61 172 -61 11 0 20 -4 20
-10 0 -5 13 -10 29 -10 17 0 33 -4 36 -10 3 -5 19 -10 36 -10 16 0 29 -4 29
-9 0 -4 17 -11 38 -14 20 -3 69 -13 107 -22 144 -32 333 -64 425 -71 41 -2
102 -9 135 -14 71 -11 371 -24 500 -21 102 2 394 18 470 26 28 3 66 7 85 9
130 14 345 53 480 89 41 11 90 22 108 24 18 3 35 9 38 14 3 5 18 9 33 9 15 0
31 4 37 8 5 5 36 17 69 27 33 11 64 23 70 27 5 4 17 8 27 8 10 0 18 5 18 10 0
6 11 10 25 10 14 0 25 5 25 10 0 6 9 10 20 10 11 0 20 5 20 10 0 6 7 10 15 10
15 0 86 31 95 41 3 3 20 12 38 20 17 8 32 17 32 21 0 5 4 8 10 8 8 0 71 38 95
58 6 5 24 17 40 28 78 49 265 269 265 311 0 7 5 13 10 13 6 0 10 11 10 25 0
14 4 25 9 25 9 0 15 22 35 144 14 82 6 211 -14 248 -6 10 -10 24 -10 32 0 20
-65 141 -105 196 -51 69 -203 209 -252 233 -13 5 -23 14 -23 19 0 4 -7 8 -15
8 -8 0 -15 3 -15 8 0 4 -15 13 -32 21 -18 8 -35 17 -38 20 -9 11 -155 81 -167
81 -7 0 -13 4 -13 9 0 5 -10 11 -22 14 -13 3 -54 17 -93 32 -142 54 -186 66
-198 52 -16 -16 -57 -87 -64 -109 -3 -10 -9 -18 -14 -18 -5 0 -9 -7 -9 -15 0
-8 -4 -15 -10 -15 -5 0 -10 -5 -10 -10 0 -6 -16 -36 -35 -66 -19 -30 -35 -59
-35 -64 0 -6 -3 -10 -7 -10 -5 0 -13 -10 -19 -23 -5 -12 -25 -48 -43 -80 -17
-32 -30 -61 -27 -66 3 -5 22 -11 41 -14 43 -7 173 -45 197 -58 10 -5 27 -9 38
-9 11 0 20 -4 20 -10 0 -5 11 -10 24 -10 14 0 28 -4 31 -10 3 -6 13 -10 20
-10 18 0 129 -52 133 -62 2 -4 12 -8 23 -8 10 0 19 -4 19 -9 0 -5 9 -13 21
-16 11 -4 47 -33 79 -64 65 -64 80 -108 60 -180 -11 -43 -102 -144 -140 -156
-11 -3 -20 -10 -20 -15 0 -4 -20 -16 -45 -27 -25 -10 -45 -21 -45 -25 0 -5 -6
-8 -13 -8 -7 0 -31 -9 -53 -19 -22 -11 -52 -23 -67 -26 -15 -4 -30 -11 -33
-16 -3 -5 -16 -9 -29 -9 -13 0 -27 -4 -30 -10 -3 -5 -19 -10 -36 -10 -16 0
-29 -4 -29 -10 0 -5 -13 -10 -28 -10 -16 0 -32 -3 -36 -7 -11 -11 -183 -48
-273 -60 -24 -3 -43 -9 -43 -13 0 -5 -28 -11 -62 -14 -35 -3 -99 -10 -143 -15
-309 -40 -759 -40 -1075 0 -41 5 -103 12 -137 15 -35 4 -63 10 -63 15 0 5 -22
9 -49 9 -28 0 -53 5 -56 10 -3 6 -16 10 -28 10 -29 0 -157 29 -179 41 -10 5
-29 9 -42 9 -14 0 -28 5 -31 10 -3 6 -17 10 -30 10 -13 0 -27 5 -30 10 -3 6
-17 10 -30 10 -13 0 -27 5 -30 10 -3 6 -13 10 -22 10 -27 0 -233 99 -233 113
0 4 -7 7 -15 7 -20 0 -127 107 -143 143 -18 42 -15 107 8 145 23 37 79 90 119
111 14 8 28 17 31 21 8 11 159 80 175 80 8 0 15 5 15 10 0 6 11 10 24 10 14 0
28 5 31 10 3 6 17 10 31 10 13 0 24 5 24 10 0 6 13 10 29 10 16 0 31 3 33 8 3
8 133 42 160 42 39 0 30 24 -69 182 -13 21 -23 40 -23 43 0 2 -16 29 -35 59
-19 30 -35 60 -35 66 0 5 -4 10 -10 10 -5 0 -10 7 -10 15 0 8 -4 15 -10 15 -5
0 -10 4 -10 10 0 12 -53 100 -60 99 -3 0 -27 -7 -55 -16z"/>
</g>
</svg>
