
<svg version="1.0" xmlns="http://www.w3.org/2000/svg"
 width="900.000000pt" height="900.000000pt" viewBox="0 0 900.000000 900.000000"
 preserveAspectRatio="xMidYMid meet">

<g transform="translate(0.000000,900.000000) scale(0.100000,-0.100000)"
fill="#FF4C33" stroke="none">
<path d="M4325 7869 c-546 -25 -1078 -186 -1545 -467 -755 -454 -1293 -1154
-1529 -1991 -84 -295 -122 -573 -123 -896 -1 -236 12 -393 48 -598 102 -580
330 -1075 726 -1570 l22 -28 -357 -357 -357 -357 197 -198 198 -197 3092 3092
3093 3093 -197 197 -198 198 -357 -357 -357 -357 -58 47 c-662 531 -1446 785
-2298 746z m485 -574 c459 -53 874 -205 1248 -456 81 -54 164 -113 185 -131
l38 -33 -1979 -1978 -1978 -1978 -61 78 c-282 365 -471 813 -544 1288 -26 167
-36 497 -20 660 66 679 341 1266 815 1741 476 475 1074 754 1756 818 107 10
420 4 540 -9z"/>
<path d="M7198 6002 l-207 -207 21 -40 c88 -165 187 -442 232 -645 50 -226 61
-337 61 -610 0 -266 -6 -337 -51 -560 -160 -798 -670 -1494 -1393 -1899 -301
-169 -636 -279 -1016 -333 -141 -20 -572 -17 -720 5 -306 46 -610 138 -853
261 l-69 35 -207 -208 -207 -208 133 -71 c319 -170 677 -293 1028 -351 378
-62 778 -59 1160 10 1241 224 2274 1156 2629 2373 90 306 132 603 133 936 1
391 -55 731 -177 1088 -69 202 -213 518 -279 614 -11 15 -38 -9 -218 -190z"/>
</g>
</svg>
