<?xml version="1.0" standalone="no"?>
<!DOCTYPE svg PUBLIC "-//W3C//DTD SVG 20010904//EN"
 "http://www.w3.org/TR/2001/REC-SVG-20010904/DTD/svg10.dtd">
<svg version="1.0" xmlns="http://www.w3.org/2000/svg"
 width="900.000000pt" height="520.000000pt" viewBox="0 0 900.000000 520.000000"
 preserveAspectRatio="xMidYMid meet">

<g transform="translate(0.000000,520.000000) scale(0.100000,-0.100000)"
fill="#FEC538" stroke="none">
<path d="M4330 4669 c-867 -42 -1700 -450 -2261 -1109 -134 -157 -152 -207
-108 -298 39 -79 126 -117 215 -92 37 11 57 26 107 83 206 234 327 350 507
486 350 264 743 439 1171 520 205 39 281 46 539 46 258 0 334 -7 540 -46 640
-121 1194 -447 1638 -963 62 -72 97 -104 130 -118 86 -39 190 0 231 84 44 91
26 141 -109 299 -282 332 -656 616 -1062 808 -363 172 -786 280 -1158 296 -69
3 -147 7 -175 9 -27 1 -120 -1 -205 -5z"/>
<path d="M4266 3599 c-363 -38 -758 -192 -1046 -409 -149 -112 -377 -339 -422
-423 -25 -44 -24 -133 1 -173 50 -82 152 -114 235 -75 24 12 57 39 73 59 138
182 405 394 627 497 552 257 1180 224 1696 -89 160 -98 282 -204 471 -413 64
-71 131 -89 207 -58 43 19 79 50 98 87 20 38 18 126 -3 165 -46 82 -269 306
-418 419 -231 174 -548 317 -840 378 -213 44 -468 57 -679 35z"/>
<path d="M4370 2539 c-176 -21 -375 -101 -515 -206 -94 -70 -211 -192 -231
-239 -46 -109 28 -234 147 -250 66 -9 123 19 183 90 86 100 196 172 332 218
60 20 88 23 219 22 135 0 157 -3 223 -26 113 -41 204 -100 300 -197 96 -97
136 -118 206 -107 116 19 187 143 142 250 -18 44 -141 173 -225 237 -67 51
-229 136 -311 162 -132 43 -333 63 -470 46z"/>
<path d="M4381 1504 c-225 -60 -367 -280 -331 -510 27 -171 142 -308 304 -364
80 -27 211 -27 289 -1 325 112 419 521 176 760 -114 112 -283 157 -438 115z"/>
</g>
</svg>
